<svg width="111" height="111" viewBox="0 0 111 111" fill="none" xmlns="http://www.w3.org/2000/svg">
<circle r="55" transform="matrix(1 0 0 -1 55.5 55.5)" fill="#07648D"/>
<path fill-rule="evenodd" clip-rule="evenodd" d="M54.3024 13.3431C54.531 13.1511 54.8194 13.045 55.1179 13.043C55.4198 13.0426 55.7122 13.1489 55.9434 13.3431L71.3119 26.1474C71.5128 26.3162 71.6569 26.5426 71.7249 26.7961C71.7928 27.0495 71.7812 27.3178 71.6917 27.5644C71.6022 27.8111 71.4391 28.0244 71.2244 28.1753C71.0097 28.3262 70.7539 28.4074 70.4915 28.4082H69.5483V44.4846L77.073 85.6395L87.8334 85.6391C88.0031 85.6367 88.1715 85.668 88.329 85.7313C88.4864 85.7946 88.6297 85.8885 88.7505 86.0076C88.8714 86.1268 88.9673 86.2687 89.0328 86.4253C89.0983 86.5818 89.132 86.7498 89.132 86.9195C89.132 87.0892 89.0983 87.2572 89.0328 87.4137C88.9673 87.5703 88.8714 87.7122 88.7505 87.8314C88.6297 87.9505 88.4864 88.0444 88.329 88.1077C88.1715 88.171 88.0031 88.2023 87.8334 88.1999L22.4119 88.2029C22.2422 88.2053 22.0738 88.1739 21.9163 88.1107C21.7589 88.0474 21.6156 87.9535 21.4947 87.8343C21.3739 87.7152 21.278 87.5732 21.2125 87.4167C21.147 87.2601 21.1133 87.0921 21.1133 86.9225C21.1133 86.7528 21.147 86.5848 21.2125 86.4282C21.278 86.2717 21.3739 86.1297 21.4947 86.0106C21.6156 85.8914 21.7589 85.7975 21.9163 85.7342C22.0738 85.671 22.2422 85.6396 22.4119 85.642L33.1708 85.6415L40.6957 44.485V28.4082H39.7543C39.4919 28.4074 39.236 28.3262 39.0214 28.1753C38.8067 28.0244 38.6436 27.8111 38.5541 27.5644C38.4646 27.3178 38.453 27.0495 38.5209 26.7961C38.5888 26.5426 38.733 26.3162 38.9338 26.1474L54.3024 13.3431ZM73.5029 85.6397L36.7411 85.6414L55.1228 66.2517L73.5029 85.6397ZM73.8484 82.2776L68.365 52.2834L56.8892 64.3885L73.8484 82.2776ZM53.3564 64.3885L41.8794 52.2821L36.3953 82.2796L53.3564 64.3885ZM42.4505 49.158L43.0366 45.9518H67.2075L67.7939 49.1594L55.1228 62.5252L42.4505 49.158ZM66.9812 43.3909V35.7063H64.2846V43.3909H66.9812ZM61.7238 43.3909V35.7063H59.0291V43.3909H61.7238ZM56.4682 43.3909H53.7735V35.7063H56.4682V43.3909ZM51.2126 43.3909V35.7063H48.5179V43.3909H51.2126ZM45.9571 43.3909V35.7063H43.2628V43.3909H45.9571ZM66.9812 33.1454H43.2628V28.4082H66.9812V33.1454ZM66.9546 25.8473L55.123 15.989L43.2914 25.8473H66.9546Z" fill="white"/>
</svg>
