<svg width="156" height="30" viewBox="0 0 156 30" fill="none" xmlns="http://www.w3.org/2000/svg">
<path d="M44.0711 22.2572C43.8932 22.3906 43.6412 22.5389 43.315 22.7019C43.0037 22.8502 42.6331 22.991 42.2032 23.1244C41.7733 23.2579 41.2915 23.369 40.7579 23.458C40.239 23.5469 39.6831 23.5914 39.0901 23.5914C37.8301 23.5914 36.696 23.3764 35.688 22.9465C34.6947 22.5018 33.8498 21.9088 33.153 21.1676C32.4563 20.4264 31.9226 19.5666 31.552 18.5882C31.1814 17.6098 30.9961 16.5721 30.9961 15.4751C30.9961 14.2595 31.211 13.1403 31.6409 12.1174C32.0857 11.0946 32.6861 10.2125 33.4421 9.47131C34.1981 8.7301 35.0802 8.15195 36.0882 7.73688C37.1111 7.3218 38.1933 7.11426 39.3347 7.11426C39.7646 7.11426 40.2019 7.14391 40.6467 7.2032C41.0914 7.2625 41.5065 7.34403 41.8919 7.4478C42.2922 7.55157 42.6405 7.67758 42.937 7.82582C43.2483 7.95924 43.4855 8.10007 43.6486 8.24831C43.53 8.4262 43.4336 8.57445 43.3595 8.69304C43.3002 8.81163 43.2335 8.93764 43.1594 9.07106C43.0853 9.18965 43.0037 9.33048 42.9148 9.49355C42.8258 9.65661 42.7072 9.87157 42.559 10.1384C42.3663 10.005 42.1365 9.8938 41.8697 9.80486C41.6177 9.71591 41.3508 9.64179 41.0692 9.58249C40.7875 9.5232 40.4984 9.47872 40.2019 9.44908C39.9203 9.41943 39.6609 9.4046 39.4237 9.4046C38.5639 9.4046 37.7634 9.56767 37.0221 9.8938C36.2958 10.2051 35.6657 10.635 35.1321 11.1835C34.5984 11.7172 34.1759 12.3398 33.8646 13.0514C33.5681 13.7629 33.4199 14.5041 33.4199 15.275C33.4199 16.031 33.5607 16.7574 33.8423 17.4542C34.1388 18.1509 34.5391 18.7735 35.0431 19.322C35.562 19.8705 36.1772 20.3078 36.8887 20.634C37.6151 20.9601 38.4082 21.1232 39.268 21.1232C39.7276 21.1232 40.1723 21.0787 40.6022 20.9897C41.0321 20.9008 41.4175 20.797 41.7585 20.6784C42.1143 20.5598 42.4033 20.4412 42.6257 20.3227C42.8629 20.2041 43.0037 20.1151 43.0482 20.0558L44.0711 22.2572Z" fill="white"/>
<path d="M46.2879 23.4135V7.29215H50.6907C51.5357 7.29215 52.3066 7.40333 53.0033 7.62569C53.7149 7.84806 54.3227 8.1816 54.8267 8.62633C55.3455 9.05623 55.7458 9.58991 56.0275 10.2273C56.3091 10.85 56.4499 11.5689 56.4499 12.3843C56.4499 12.829 56.4055 13.2737 56.3165 13.7185C56.2276 14.1484 56.0793 14.5708 55.8718 14.9859C55.6791 15.3862 55.4271 15.7642 55.1158 16.12C54.8045 16.4609 54.4264 16.75 53.9817 16.9872C54.5747 17.9211 55.2195 18.9588 55.9163 20.1003C56.613 21.2269 57.3172 22.3313 58.0287 23.4135H55.1158C54.8193 22.954 54.508 22.4722 54.1818 21.9681C53.8705 21.4641 53.5518 20.9675 53.2257 20.4783C52.9144 19.9743 52.6031 19.4851 52.2917 19.0107C51.9953 18.5215 51.7136 18.0694 51.4468 17.6543H51.002H48.7339V23.4135H46.2879ZM48.7339 15.3639H50.9353C51.5283 15.3639 52.0249 15.2676 52.4252 15.0749C52.8254 14.8673 53.1367 14.6153 53.3591 14.3188C53.5963 14.0224 53.7593 13.7036 53.8483 13.3627C53.9521 13.0217 54.0039 12.7104 54.0039 12.4287C54.0039 12.1471 53.9521 11.8432 53.8483 11.5171C53.7593 11.1761 53.5963 10.8648 53.3591 10.5831C53.1219 10.2866 52.8032 10.042 52.4029 9.84933C52.0175 9.65661 51.5357 9.56026 50.9576 9.56026H48.7339V15.3639Z" fill="white"/>
<path d="M58.8779 15.3639C58.8779 14.2521 59.0928 13.1996 59.5227 12.2064C59.9526 11.1983 60.5382 10.3163 61.2794 9.56026C62.0354 8.80422 62.9101 8.21125 63.9033 7.78135C64.8965 7.33662 65.9639 7.11426 67.1053 7.11426C68.232 7.11426 69.2919 7.33662 70.2851 7.78135C71.2932 8.21125 72.1678 8.80422 72.909 9.56026C73.6651 10.3163 74.258 11.1983 74.6879 12.2064C75.1326 13.1996 75.355 14.2521 75.355 15.3639C75.355 16.5054 75.1326 17.5728 74.6879 18.566C74.258 19.5592 73.6651 20.4338 72.909 21.1899C72.1678 21.9311 71.2932 22.5166 70.2851 22.9465C69.2919 23.3764 68.232 23.5914 67.1053 23.5914C65.9639 23.5914 64.8965 23.3764 63.9033 22.9465C62.9101 22.5166 62.0354 21.9311 61.2794 21.1899C60.5382 20.4338 59.9526 19.5592 59.5227 18.566C59.0928 17.5728 58.8779 16.5054 58.8779 15.3639ZM61.3016 15.3862C61.3016 16.2015 61.4499 16.9724 61.7464 17.6988C62.0577 18.4103 62.4802 19.0329 63.0138 19.5666C63.5475 20.1003 64.1701 20.5228 64.8817 20.8341C65.5933 21.1454 66.3493 21.3011 67.1498 21.3011C67.9503 21.3011 68.6989 21.1454 69.3957 20.8341C70.1072 20.5228 70.7224 20.1003 71.2413 19.5666C71.775 19.0329 72.19 18.4103 72.4865 17.6988C72.7978 16.9724 72.9535 16.1941 72.9535 15.3639C72.9535 14.5486 72.7978 13.7852 72.4865 13.0736C72.19 12.3472 71.775 11.7172 71.2413 11.1835C70.7076 10.6498 70.085 10.2273 69.3734 9.91604C68.6767 9.60473 67.9281 9.44908 67.1276 9.44908C66.3271 9.44908 65.571 9.60473 64.8595 9.91604C64.1479 10.2273 63.5253 10.6498 62.9916 11.1835C62.4728 11.7172 62.0577 12.3472 61.7464 13.0736C61.4499 13.8 61.3016 14.5708 61.3016 15.3862Z" fill="white"/>
<path d="M87.2636 8.1816L86.3964 10.1606C85.7886 9.93828 85.1808 9.76038 84.573 9.62697C83.9801 9.49355 83.4093 9.42684 82.8608 9.42684C81.9269 9.42684 81.1783 9.61955 80.615 10.005C80.0665 10.3904 79.7922 10.8796 79.7922 11.4726C79.7922 11.9766 79.9923 12.3843 80.3926 12.6956C80.7928 12.9921 81.2895 13.2663 81.8824 13.5183C82.4754 13.7555 83.1202 14.0001 83.817 14.2521C84.5137 14.4893 85.1586 14.8006 85.7516 15.1861C86.3445 15.5715 86.8411 16.0607 87.2414 16.6537C87.6416 17.2318 87.8418 17.9804 87.8418 18.8995C87.8418 19.6111 87.7084 20.2559 87.4415 20.8341C87.1895 21.3974 86.8041 21.8866 86.2852 22.3017C85.7812 22.7168 85.1438 23.0355 84.3729 23.2579C83.6169 23.4802 82.7274 23.5914 81.7045 23.5914C81.0523 23.5914 80.4593 23.5469 79.9256 23.458C79.4068 23.369 78.9324 23.2579 78.5025 23.1244C78.0874 22.9762 77.7168 22.8205 77.3907 22.6575C77.0794 22.4944 76.8125 22.3462 76.5902 22.2127L77.6575 20.1003C78.2505 20.4412 78.9102 20.7155 79.6366 20.923C80.3629 21.1306 81.0226 21.2343 81.6156 21.2343C81.9121 21.2343 82.2753 21.1973 82.7052 21.1232C83.1499 21.049 83.5724 20.923 83.9726 20.7451C84.3729 20.5524 84.7139 20.3004 84.9955 19.9891C85.292 19.6778 85.4402 19.285 85.4402 18.8106C85.4402 18.3807 85.3217 18.0175 85.0845 17.721C84.8621 17.4097 84.5582 17.1429 84.1728 16.9205C83.8022 16.6833 83.3723 16.4758 82.8831 16.2979C82.4087 16.1052 81.9195 15.9124 81.4155 15.7197C80.9114 15.5122 80.4148 15.2972 79.9256 15.0749C79.4512 14.8525 79.0214 14.5857 78.6359 14.2744C78.2653 13.9482 77.9614 13.5776 77.7242 13.1625C77.5019 12.7326 77.3907 12.2212 77.3907 11.6282C77.3907 11.0797 77.5019 10.5387 77.7242 10.005C77.9466 9.47131 78.2801 8.99694 78.7249 8.58186C79.1696 8.16678 79.7181 7.83323 80.3704 7.58122C81.0374 7.32921 81.8083 7.2032 82.6829 7.2032C83.2166 7.2032 83.7355 7.24768 84.2395 7.33662C84.7583 7.42557 85.2253 7.52934 85.6404 7.64793C86.0555 7.7517 86.4038 7.85547 86.6855 7.95924C86.982 8.06301 87.1747 8.13713 87.2636 8.1816Z" fill="white"/>
<path d="M99.8367 8.1816L98.9695 10.1606C98.3617 9.93828 97.7539 9.76038 97.1461 9.62697C96.5531 9.49355 95.9824 9.42684 95.4339 9.42684C94.5 9.42684 93.7514 9.61955 93.188 10.005C92.6396 10.3904 92.3653 10.8796 92.3653 11.4726C92.3653 11.9766 92.5654 12.3843 92.9657 12.6956C93.3659 12.9921 93.8626 13.2663 94.4555 13.5183C95.0485 13.7555 95.6933 14.0001 96.3901 14.2521C97.0868 14.4893 97.7317 14.8006 98.3246 15.1861C98.9176 15.5715 99.4142 16.0607 99.8145 16.6537C100.215 17.2318 100.415 17.9804 100.415 18.8995C100.415 19.6111 100.281 20.2559 100.015 20.8341C99.7626 21.3974 99.3772 21.8866 98.8583 22.3017C98.3543 22.7168 97.7169 23.0355 96.946 23.2579C96.19 23.4802 95.3005 23.5914 94.2776 23.5914C93.6254 23.5914 93.0324 23.5469 92.4987 23.458C91.9799 23.369 91.5055 23.2579 91.0756 23.1244C90.6605 22.9762 90.2899 22.8205 89.9638 22.6575C89.6525 22.4944 89.3856 22.3462 89.1633 22.2127L90.2306 20.1003C90.8236 20.4412 91.4833 20.7155 92.2096 20.923C92.936 21.1306 93.5957 21.2343 94.1887 21.2343C94.4852 21.2343 94.8484 21.1973 95.2783 21.1232C95.723 21.049 96.1455 20.923 96.5457 20.7451C96.946 20.5524 97.2869 20.3004 97.5686 19.9891C97.8651 19.6778 98.0133 19.285 98.0133 18.8106C98.0133 18.3807 97.8947 18.0175 97.6576 17.721C97.4352 17.4097 97.1313 17.1429 96.7459 16.9205C96.3753 16.6833 95.9454 16.4758 95.4562 16.2979C94.9818 16.1052 94.4926 15.9124 93.9886 15.7197C93.4845 15.5122 92.9879 15.2972 92.4987 15.0749C92.0243 14.8525 91.5944 14.5857 91.209 14.2744C90.8384 13.9482 90.5345 13.5776 90.2973 13.1625C90.075 12.7326 89.9638 12.2212 89.9638 11.6282C89.9638 11.0797 90.075 10.5387 90.2973 10.005C90.5197 9.47131 90.8532 8.99694 91.298 8.58186C91.7427 8.16678 92.2912 7.83323 92.9434 7.58122C93.6105 7.32921 94.3814 7.2032 95.256 7.2032C95.7897 7.2032 96.3085 7.24768 96.8126 7.33662C97.3314 7.42557 97.7984 7.52934 98.2135 7.64793C98.6285 7.7517 98.9769 7.85547 99.2586 7.95924C99.5551 8.06301 99.7478 8.13713 99.8367 8.1816Z" fill="white"/>
<path d="M103.182 23.4135V7.29215H112.832V9.53802H105.605V14.4078H111.921V16.6759H105.605V23.4135H103.182Z" fill="white"/>
<path d="M115.516 23.4135V7.29215H126.1V9.49355H117.962V14.2077H125.211V16.4535H117.962V21.1676H126.412V23.4135H115.516Z" fill="white"/>
<path d="M129.24 23.4135V7.29215H139.824V9.49355H131.686V14.2077H138.935V16.4535H131.686V21.1676H140.136V23.4135H129.24Z" fill="white"/>
<path d="M142.964 7.29215H147.011C148.642 7.29215 150.02 7.53675 151.147 8.02595C152.274 8.51515 153.185 9.16 153.882 9.96051C154.594 10.7462 155.105 11.6356 155.416 12.6289C155.742 13.6073 155.905 14.5857 155.905 15.5641C155.905 16.7648 155.691 17.8544 155.261 18.8328C154.831 19.7964 154.245 20.6191 153.504 21.3011C152.763 21.983 151.903 22.5092 150.925 22.8798C149.946 23.2356 148.908 23.4135 147.811 23.4135H142.964V7.29215ZM147.456 21.1009C148.315 21.1009 149.109 20.9749 149.835 20.7229C150.576 20.4709 151.214 20.1077 151.747 19.6333C152.296 19.1441 152.718 18.5512 153.015 17.8544C153.326 17.1429 153.482 16.3275 153.482 15.4084C153.482 14.43 153.311 13.5776 152.97 12.8512C152.629 12.1248 152.185 11.5245 151.636 11.0501C151.088 10.5609 150.465 10.2051 149.768 9.98275C149.086 9.74556 148.39 9.62697 147.678 9.62697H145.388V21.1009H147.456Z" fill="white"/>
<path fill-rule="evenodd" clip-rule="evenodd" d="M1.32796 28.3947C1.26227 28.3938 1.19706 28.406 1.1361 28.4305C1.07514 28.4549 1.01966 28.4913 0.972885 28.5374C0.926106 28.5836 0.88896 28.6385 0.863606 28.6991C0.838252 28.7597 0.825195 28.8248 0.825195 28.8905C0.825195 28.9562 0.838252 29.0212 0.863606 29.0818C0.88896 29.1424 0.926106 29.1974 0.972885 29.2435C1.01966 29.2897 1.07514 29.326 1.1361 29.3505C1.19706 29.375 1.26227 29.3872 1.32796 29.3862L26.6569 29.3851C26.7226 29.386 26.7878 29.3739 26.8488 29.3494C26.9097 29.3249 26.9652 29.2885 27.012 29.2424C27.0588 29.1963 27.0959 29.1413 27.1213 29.0807C27.1466 29.0201 27.1597 28.955 27.1597 28.8893C27.1597 28.8236 27.1466 28.7586 27.1213 28.698C27.0959 28.6374 27.0588 28.5824 27.012 28.5363C26.9652 28.4902 26.9097 28.4538 26.8488 28.4293C26.7878 28.4048 26.7226 28.3927 26.6569 28.3936L1.32796 28.3947Z" fill="white"/>
<path fill-rule="evenodd" clip-rule="evenodd" d="M13.9905 0.28711C13.875 0.287879 13.7633 0.328967 13.6748 0.403299L7.72463 5.36069C7.64686 5.42606 7.59105 5.51371 7.56475 5.61183C7.53845 5.70995 7.54293 5.81383 7.57759 5.90932C7.61224 6.00481 7.6754 6.08738 7.75851 6.14581C7.84162 6.20424 7.94068 6.23568 8.04228 6.23598H19.9426C20.0442 6.23568 20.1433 6.20424 20.2264 6.14581C20.3095 6.08738 20.3727 6.00481 20.4073 5.90932C20.442 5.81383 20.4465 5.70995 20.4202 5.61183C20.3939 5.51371 20.3381 5.42606 20.2603 5.36069L14.3101 0.403299C14.2206 0.328114 14.1074 0.286971 13.9905 0.28711ZM13.9925 1.4277L18.5733 5.2445H9.41173L13.9925 1.4277Z" fill="white"/>
<path fill-rule="evenodd" clip-rule="evenodd" d="M9.03516 8.07031V9.06179H18.9499V8.07031H9.03516Z" fill="white"/>
<path fill-rule="evenodd" clip-rule="evenodd" d="M18.584 5.0957V12.5495L21.5715 28.8912L22.5499 28.7156L19.5779 12.4606V5.0957H18.584Z" fill="white"/>
<path fill-rule="evenodd" clip-rule="evenodd" d="M8.40659 5.0957V12.4606L5.43457 28.7156L6.41295 28.8912L9.40048 12.5495V5.0957H8.40659Z" fill="white"/>
<path fill-rule="evenodd" clip-rule="evenodd" d="M10.4443 8.56543V12.5313H11.4358V8.56543H10.4443Z" fill="white"/>
<path fill-rule="evenodd" clip-rule="evenodd" d="M12.4795 8.56543V12.5313H13.471V8.56543H12.4795Z" fill="white"/>
<path fill-rule="evenodd" clip-rule="evenodd" d="M14.5137 8.56543V12.5313H15.5052V8.56543H14.5137Z" fill="white"/>
<path fill-rule="evenodd" clip-rule="evenodd" d="M16.5488 8.56543V12.5313H17.5403V8.56543H16.5488Z" fill="white"/>
<path fill-rule="evenodd" clip-rule="evenodd" d="M9.03516 12.0361V13.0276H18.9499V12.0361H9.03516Z" fill="white"/>
<path fill-rule="evenodd" clip-rule="evenodd" d="M18.9892 14.1738L5.83008 28.0545L6.55165 28.7362L19.7108 14.8555L18.9892 14.1738Z" fill="white"/>
<path fill-rule="evenodd" clip-rule="evenodd" d="M8.99598 14.1738L8.27441 14.8555L21.4335 28.7362L22.1551 28.0545L8.99598 14.1738Z" fill="white"/>
</svg>
